Benzinova-Thin-UltraCondensed.ufo
<glyph name="zero" format="1">
  <advance width="616.0"/>
  <unicode hex="0030"/>
  <outline>
    <contour>
      <point x="536" y="1004" type="line" smooth="yes"/>
      <point x="536" y="1130"/>
      <point x="433" y="1232"/>
      <point x="308" y="1232" type="curve" smooth="yes"/>
      <point x="182" y="1232"/>
      <point x="80" y="1130"/>
      <point x="80" y="1004" type="curve" smooth="yes"/>
      <point x="80" y="196" type="line" smooth="yes"/>
      <point x="80" y="71"/>
      <point x="182" y="-32"/>
      <point x="308" y="-32" type="curve" smooth="yes"/>
      <point x="433" y="-32"/>
      <point x="536" y="71"/>
      <point x="536" y="196" type="curve" smooth="yes"/>
    </contour>
    <contour>
      <point x="504" y="1004" type="curve" smooth="yes"/>
      <point x="504" y="196" type="line" smooth="yes"/>
      <point x="504" y="89"/>
      <point x="415" y="0"/>
      <point x="308" y="0" type="curve" smooth="yes"/>
      <point x="200" y="0"/>
      <point x="112" y="89"/>
      <point x="112" y="196" type="curve" smooth="yes"/>
      <point x="112" y="1004" type="line" smooth="yes"/>
      <point x="112" y="1112"/>
      <point x="200" y="1200"/>
      <point x="308" y="1200" type="curve" smooth="yes"/>
      <point x="415" y="1200"/>
      <point x="504" y="1112"/>
    </contour>
    <contour>
      <point x="85" y="210" type="line" smooth="yes"/>
      <point x="81" y="202"/>
      <point x="84" y="192"/>
      <point x="91" y="188" type="curve" smooth="yes"/>
      <point x="99" y="184"/>
      <point x="109" y="187"/>
      <point x="113" y="194" type="curve" smooth="yes"/>
      <point x="531" y="981" type="line" smooth="yes"/>
      <point x="535" y="989"/>
      <point x="532" y="999"/>
      <point x="525" y="1003" type="curve" smooth="yes"/>
      <point x="517" y="1007"/>
      <point x="507" y="1004"/>
      <point x="503" y="997" type="curve" smooth="yes"/>
    </contour>
  </outline>
</glyph>
<glyph name="four" format="1">
  <advance width="616.0"/>
  <unicode hex="0034"/>
  <outline>
    <contour>
      <point x="510" y="268" type="line" smooth="yes"/>
      <point x="519" y="268"/>
      <point x="526" y="275"/>
      <point x="526" y="284" type="curve" smooth="yes"/>
      <point x="526" y="293"/>
      <point x="519" y="300"/>
      <point x="510" y="300" type="curve" smooth="yes"/>
      <point x="96" y="300" type="line"/>
      <point x="112" y="280" type="line"/>
      <point x="324" y="1180" type="line"/>
      <point x="308" y="1168" type="line"/>
      <point x="520" y="1168" type="line"/>
      <point x="504" y="1184" type="line"/>
      <point x="504" y="16" type="line" smooth="yes"/>
      <point x="504" y="7"/>
      <point x="511" y="0"/>
      <point x="520" y="0" type="curve" smooth="yes"/>
      <point x="529" y="0"/>
      <point x="536" y="7"/>
      <point x="536" y="16" type="curve" smooth="yes"/>
      <point x="536" y="1184" type="line" smooth="yes"/>
      <point x="536" y="1193"/>
      <point x="529" y="1200"/>
      <point x="520" y="1200" type="curve" smooth="yes"/>
      <point x="308" y="1200" type="line" smooth="yes"/>
      <point x="301" y="1200"/>
      <point x="294" y="1194"/>
      <point x="292" y="1188" type="curve" smooth="yes"/>
      <point x="80" y="288" type="line" smooth="yes"/>
      <point x="78" y="277"/>
      <point x="85" y="268"/>
      <point x="96" y="268" type="curve" smooth="yes"/>
    </contour>
  </outline>
</glyph>
<glyph name="nine" format="1">
  <advance width="616.0"/>
  <unicode hex="0039"/>
  <outline>
    <contour>
      <point x="112" y="196" type="curve" smooth="yes"/>
      <point x="112" y="205"/>
      <point x="105" y="212"/>
      <point x="96" y="212" type="curve" smooth="yes"/>
      <point x="87" y="212"/>
      <point x="80" y="205"/>
      <point x="80" y="196" type="curve" smooth="yes"/>
      <point x="80" y="70"/>
      <point x="183" y="-32"/>
      <point x="308" y="-32" type="curve" smooth="yes"/>
      <point x="434" y="-32"/>
      <point x="536" y="70"/>
      <point x="536" y="196" type="curve" smooth="yes"/>
      <point x="536" y="1004" type="line" smooth="yes"/>
      <point x="536" y="1129"/>
      <point x="434" y="1232"/>
      <point x="308" y="1232" type="curve" smooth="yes"/>
      <point x="183" y="1232"/>
      <point x="80" y="1129"/>
      <point x="80" y="1004" type="curve" smooth="yes"/>
      <point x="80" y="684" type="line" smooth="yes"/>
      <point x="80" y="558"/>
      <point x="183" y="456"/>
      <point x="308" y="456" type="curve" smooth="yes"/>
      <point x="419" y="456"/>
      <point x="511" y="536"/>
      <point x="532" y="641" type="curve" smooth="yes"/>
      <point x="533" y="649"/>
      <point x="528" y="658"/>
      <point x="519" y="660" type="curve" smooth="yes"/>
      <point x="511" y="661"/>
      <point x="502" y="656"/>
      <point x="500" y="647" type="curve" smooth="yes"/>
      <point x="483" y="556"/>
      <point x="403" y="488"/>
      <point x="308" y="488" type="curve" smooth="yes"/>
      <point x="201" y="488"/>
      <point x="112" y="576"/>
      <point x="112" y="684" type="curve" smooth="yes"/>
      <point x="112" y="1004" type="line" smooth="yes"/>
      <point x="112" y="1111"/>
      <point x="201" y="1200"/>
      <point x="308" y="1200" type="curve" smooth="yes"/>
      <point x="416" y="1200"/>
      <point x="504" y="1111"/>
      <point x="504" y="1004" type="curve" smooth="yes"/>
      <point x="504" y="196" type="line" smooth="yes"/>
      <point x="504" y="88"/>
      <point x="416" y="0"/>
      <point x="308" y="0" type="curve" smooth="yes"/>
      <point x="201" y="0"/>
      <point x="112" y="88"/>
    </contour>
  </outline>
</glyph>
<glyph name="U" format="1">
  <advance width="616.0"/>
  <unicode hex="0055"/>
  <outline>
    <contour>
      <point x="112" y="1184" type="line" smooth="yes"/>
      <point x="112" y="1193"/>
      <point x="105" y="1200"/>
      <point x="96" y="1200" type="curve" smooth="yes"/>
      <point x="87" y="1200"/>
      <point x="80" y="1193"/>
      <point x="80" y="1184" type="curve" smooth="yes"/>
      <point x="80" y="196" type="line" smooth="yes"/>
      <point x="80" y="70"/>
      <point x="182" y="-32"/>
      <point x="308" y="-32" type="curve" smooth="yes"/>
      <point x="434" y="-32"/>
      <point x="536" y="70"/>
      <point x="536" y="196" type="curve" smooth="yes"/>
      <point x="536" y="1184" type="line" smooth="yes"/>
      <point x="536" y="1193"/>
      <point x="529" y="1200"/>
      <point x="520" y="1200" type="curve" smooth="yes"/>
      <point x="511" y="1200"/>
      <point x="504" y="1193"/>
      <point x="504" y="1184" type="curve" smooth="yes"/>
      <point x="504" y="196" type="line" smooth="yes"/>
      <point x="504" y="88"/>
      <point x="416" y="0"/>
      <point x="308" y="0" type="curve" smooth="yes"/>
      <point x="200" y="0"/>
      <point x="112" y="88"/>
      <point x="112" y="196" type="curve" smooth="yes"/>
    </contour>
  </outline>
</glyph>
<glyph name="bracketleft" format="1">
  <advance width="384.0"/>
  <unicode hex="005B"/>
  <outline>
    <contour>
      <point x="308" y="1200" type="line" smooth="yes"/>
      <point x="317" y="1200"/>
      <point x="324" y="1207"/>
      <point x="324" y="1216" type="curve" smooth="yes"/>
      <point x="324" y="1225"/>
      <point x="317" y="1232"/>
      <point x="308" y="1232" type="curve" smooth="yes"/>
      <point x="96" y="1232" type="line" smooth="yes"/>
      <point x="87" y="1232"/>
      <point x="80" y="1225"/>
      <point x="80" y="1216" type="curve" smooth="yes"/>
      <point x="80" y="-16" type="line" smooth="yes"/>
      <point x="80" y="-25"/>
      <point x="87" y="-32"/>
      <point x="96" y="-32" type="curve" smooth="yes"/>
      <point x="308" y="-32" type="line" smooth="yes"/>
      <point x="317" y="-32"/>
      <point x="324" y="-25"/>
      <point x="324" y="-16" type="curve" smooth="yes"/>
      <point x="324" y="-7"/>
      <point x="317" y="0"/>
      <point x="308" y="0" type="curve" smooth="yes"/>
      <point x="96" y="0" type="line"/>
      <point x="112" y="-16" type="line"/>
      <point x="112" y="1216" type="line"/>
      <point x="96" y="1200" type="line"/>
    </contour>
  </outline>
</glyph>
<glyph name="sterling" format="1">
  <advance width="616.0"/>
  <unicode hex="00A3"/>
  <outline>
    <contour>
      <point x="358" y="654" type="line" smooth="yes"/>
      <point x="367" y="654"/>
      <point x="374" y="661"/>
      <point x="374" y="670" type="curve" smooth="yes"/>
      <point x="374" y="679"/>
      <point x="367" y="686"/>
      <point x="358" y="686" type="curve" smooth="yes"/>
      <point x="229" y="686" type="line" smooth="yes"/>
      <point x="220" y="686"/>
      <point x="213" y="679"/>
      <point x="213" y="670" type="curve" smooth="yes"/>
      <point x="213" y="661"/>
      <point x="220" y="654"/>
      <point x="229" y="654" type="curve" smooth="yes"/>
    </contour>
    <contour>
      <point x="430" y="1184" type="curve" smooth="yes"/>
      <point x="439" y="1184"/>
      <point x="446" y="1191"/>
      <point x="446" y="1200" type="curve" smooth="yes"/>
      <point x="446" y="1209"/>
      <point x="439" y="1216"/>
      <point x="430" y="1216" type="curve" smooth="yes"/>
      <point x="304" y="1216"/>
      <point x="202" y="1114"/>
      <point x="202" y="988" type="curve" smooth="yes"/>
      <point x="202" y="124" type="line" smooth="yes"/>
      <point x="202" y="65"/>
      <point x="155" y="16"/>
      <point x="96" y="16" type="curve"/>
      <point x="96" y="-16" type="line"/>
      <point x="520" y="-16" type="line" smooth="yes"/>
      <point x="529" y="-16"/>
      <point x="536" y="-9"/>
      <point x="536" y="0" type="curve" smooth="yes"/>
      <point x="536" y="9"/>
      <point x="529" y="16"/>
      <point x="520" y="16" type="curve" smooth="yes"/>
      <point x="96" y="16" type="line"/>
      <point x="96" y="-16" type="line"/>
      <point x="173" y="-16"/>
      <point x="234" y="47"/>
      <point x="234" y="124" type="curve" smooth="yes"/>
      <point x="234" y="988" type="line" smooth="yes"/>
      <point x="234" y="1096"/>
      <point x="322" y="1184"/>
    </contour>
  </outline>
</glyph>
<glyph name="Thorn" format="1">
  <advance width="616.0"/>
  <unicode hex="00DE"/>
  <outline>
    <contour>
      <point x="86" y="-160" type="line" smooth="yes"/>
      <point x="86" y="-165"/>
      <point x="91" y="-170"/>
      <point x="96" y="-170" type="curve" smooth="yes"/>
      <point x="101" y="-170"/>
      <point x="106" y="-165"/>
      <point x="106" y="-160" type="curve" smooth="yes"/>
      <point x="106" y="1200" type="line" smooth="yes"/>
      <point x="106" y="1205"/>
      <point x="101" y="1210"/>
      <point x="96" y="1210" type="curve" smooth="yes"/>
      <point x="91" y="1210"/>
      <point x="86" y="1205"/>
      <point x="86" y="1200" type="curve" smooth="yes"/>
    </contour>
    <contour>
      <point x="106" y="862" type="line" smooth="yes"/>
      <point x="101" y="862"/>
      <point x="96" y="857"/>
      <point x="96" y="852" type="curve" smooth="yes"/>
      <point x="96" y="847"/>
      <point x="101" y="842"/>
      <point x="106" y="842" type="curve" smooth="yes"/>
      <point x="308" y="842" type="line" smooth="yes"/>
      <point x="419" y="842"/>
      <point x="510" y="751"/>
      <point x="510" y="640" type="curve" smooth="yes"/>
      <point x="510" y="212" type="line" smooth="yes"/>
      <point x="510" y="101"/>
      <point x="419" y="10"/>
      <point x="308" y="10" type="curve" smooth="yes"/>
      <point x="106" y="10" type="line" smooth="yes"/>
      <point x="101" y="10"/>
      <point x="96" y="5"/>
      <point x="96" y="0" type="curve" smooth="yes"/>
      <point x="96" y="-5"/>
      <point x="101" y="-10"/>
      <point x="106" y="-10" type="curve" smooth="yes"/>
      <point x="308" y="-10" type="line" smooth="yes"/>
      <point x="431" y="-10"/>
      <point x="530" y="89"/>
      <point x="530" y="212" type="curve" smooth="yes"/>
      <point x="530" y="640" type="line" smooth="yes"/>
      <point x="530" y="763"/>
      <point x="431" y="862"/>
      <point x="308" y="862" type="curve" smooth="yes"/>
    </contour>
  </outline>
</glyph>
<glyph name="oslash" format="1">
  <advance width="500"/>
  <unicode hex="00F8"/>
  <outline>
    <contour>
      <point x="153" y="45" type="line"/>
      <point x="139" y="4" type="line" smooth="yes"/>
      <point x="136" y="-4"/>
      <point x="139" y="-13"/>
      <point x="147" y="-14" type="curve" smooth="yes"/>
      <point x="155" y="-21"/>
      <point x="167" y="-16"/>
      <point x="171" y="-6" type="curve" smooth="yes"/>
      <point x="181" y="23" type="line"/>
      <point x="478" y="847" type="line" smooth="yes"/>
      <point x="481" y="854"/>
      <point x="476" y="864"/>
      <point x="469" y="867" type="curve" smooth="yes"/>
      <point x="461" y="871"/>
      <point x="451" y="864"/>
      <point x="448" y="857" type="curve" smooth="yes"/>
    </contour>
    <component base="o"/>
  </outline>
</glyph>
<glyph name="kgreenlandic" format="1">
  <advance width="616"/>
  <unicode hex="0138"/>
  <outline>
    <contour>
      <point x="112" y="836" type="line" smooth="yes"/>
      <point x="112" y="845"/>
      <point x="105" y="852"/>
      <point x="96" y="852" type="curve" smooth="yes"/>
      <point x="87" y="852"/>
      <point x="80" y="845"/>
      <point x="80" y="836" type="curve" smooth="yes"/>
      <point x="80" y="16" type="line" smooth="yes"/>
      <point x="80" y="7"/>
      <point x="87" y="0"/>
      <point x="96" y="0" type="curve" smooth="yes"/>
      <point x="105" y="0"/>
      <point x="112" y="7"/>
      <point x="112" y="16" type="curve" smooth="yes"/>
    </contour>
    <contour>
      <point x="531" y="824" type="line" smooth="yes"/>
      <point x="537" y="830"/>
      <point x="538" y="841"/>
      <point x="532" y="847" type="curve" smooth="yes"/>
      <point x="526" y="853"/>
      <point x="515" y="854"/>
      <point x="509" y="848" type="curve" smooth="yes"/>
      <point x="91" y="454" type="line" smooth="yes"/>
      <point x="85" y="448"/>
      <point x="84" y="437"/>
      <point x="90" y="431" type="curve" smooth="yes"/>
      <point x="96" y="425"/>
      <point x="107" y="424"/>
      <point x="113" y="430" type="curve" smooth="yes"/>
    </contour>
    <contour>
      <point x="134" y="463" type="line" smooth="yes"/>
      <point x="128" y="469"/>
      <point x="117" y="470"/>
      <point x="111" y="464" type="curve" smooth="yes"/>
      <point x="105" y="458"/>
      <point x="104" y="447"/>
      <point x="110" y="441" type="curve" smooth="yes"/>
      <point x="518" y="5" type="line" smooth="yes"/>
      <point x="524" y="-1"/>
      <point x="535" y="-2"/>
      <point x="541" y="4" type="curve" smooth="yes"/>
      <point x="547" y="10"/>
      <point x="548" y="21"/>
      <point x="542" y="27" type="curve" smooth="yes"/>
    </contour>
  </outline>
</glyph>
<glyph name="OE" format="1">
  <advance width="976"/>
  <unicode hex="0152"/>
  <outline>
    <contour>
      <point x="880" y="6" type="line" smooth="yes"/>
      <point x="885" y="6"/>
      <point x="890" y="11"/>
      <point x="890" y="16" type="curve" smooth="yes"/>
      <point x="890" y="21"/>
      <point x="885" y="26"/>
      <point x="880" y="26" type="curve" smooth="yes"/>
      <point x="520" y="26" type="line"/>
      <point x="530" y="16" type="line"/>
      <point x="530" y="1184" type="line"/>
      <point x="520" y="1174" type="line"/>
      <point x="880" y="1174" type="line" smooth="yes"/>
      <point x="885" y="1174"/>
      <point x="890" y="1179"/>
      <point x="890" y="1184" type="curve" smooth="yes"/>
      <point x="890" y="1189"/>
      <point x="885" y="1194"/>
      <point x="880" y="1194" type="curve" smooth="yes"/>
      <point x="520" y="1194" type="line" smooth="yes"/>
      <point x="514" y="1194"/>
      <point x="510" y="1190"/>
      <point x="510" y="1184" type="curve" smooth="yes"/>
      <point x="510" y="16" type="line" smooth="yes"/>
      <point x="510" y="10"/>
      <point x="514" y="6"/>
      <point x="520" y="6" type="curve" smooth="yes"/>
    </contour>
    <contour>
      <point x="531" y="556" type="line" smooth="yes"/>
      <point x="526" y="556"/>
      <point x="521" y="551"/>
      <point x="521" y="546" type="curve" smooth="yes"/>
      <point x="521" y="541"/>
      <point x="526" y="536"/>
      <point x="531" y="536" type="curve" smooth="yes"/>
      <point x="700" y="536" type="line" smooth="yes"/>
      <point x="705" y="536"/>
      <point x="710" y="541"/>
      <point x="710" y="546" type="curve" smooth="yes"/>
      <point x="710" y="551"/>
      <point x="705" y="556"/>
      <point x="700" y="556" type="curve" smooth="yes"/>
    </contour>
    <contour>
      <point x="505" y="1033" type="curve" smooth="yes"/>
      <point x="506" y="1027"/>
      <point x="512" y="1024"/>
      <point x="517" y="1025" type="curve" smooth="yes"/>
      <point x="523" y="1026"/>
      <point x="526" y="1032"/>
      <point x="525" y="1037" type="curve" smooth="yes"/>
      <point x="502" y="1136"/>
      <point x="414" y="1210"/>
      <point x="308" y="1210" type="curve" smooth="yes"/>
      <point x="185" y="1210"/>
      <point x="86" y="1111"/>
      <point x="86" y="988" type="curve" smooth="yes"/>
      <point x="86" y="212" type="line" smooth="yes"/>
      <point x="86" y="89"/>
      <point x="185" y="-10"/>
      <point x="308" y="-10" type="curve" smooth="yes"/>
      <point x="414" y="-10"/>
      <point x="503" y="64"/>
      <point x="525" y="163" type="curve" smooth="yes"/>
      <point x="526" y="168"/>
      <point x="522" y="174"/>
      <point x="517" y="175" type="curve" smooth="yes"/>
      <point x="512" y="176"/>
      <point x="506" y="172"/>
      <point x="505" y="167" type="curve" smooth="yes"/>
      <point x="485" y="78"/>
      <point x="404" y="10"/>
      <point x="308" y="10" type="curve" smooth="yes"/>
      <point x="197" y="10"/>
      <point x="106" y="101"/>
      <point x="106" y="212" type="curve" smooth="yes"/>
      <point x="106" y="988" type="line" smooth="yes"/>
      <point x="106" y="1099"/>
      <point x="197" y="1190"/>
      <point x="308" y="1190" type="curve" smooth="yes"/>
      <point x="404" y="1190"/>
      <point x="484" y="1122"/>
    </contour>
  </outline>
</glyph>
<glyph name="mu" format="1">
  <advance width="616.0"/>
  <unicode hex="03BC"/>
  <outline>
    <contour>
      <point x="80" y="-314" type="line" smooth="yes"/>
      <point x="80" y="-323"/>
      <point x="87" y="-330"/>
      <point x="96" y="-330" type="curve" smooth="yes"/>
      <point x="105" y="-330"/>
      <point x="112" y="-323"/>
      <point x="112" y="-314" type="curve" smooth="yes"/>
      <point x="112" y="836" type="line" smooth="yes"/>
      <point x="112" y="845"/>
      <point x="105" y="852"/>
      <point x="96" y="852" type="curve" smooth="yes"/>
      <point x="87" y="852"/>
      <point x="80" y="845"/>
      <point x="80" y="836" type="curve" smooth="yes"/>
    </contour>
    <contour>
      <point x="536" y="836" type="line" smooth="yes"/>
      <point x="536" y="845"/>
      <point x="529" y="852"/>
      <point x="520" y="852" type="curve" smooth="yes"/>
      <point x="511" y="852"/>
      <point x="504" y="845"/>
      <point x="504" y="836" type="curve" smooth="yes"/>
      <point x="504" y="212" type="line" smooth="yes"/>
      <point x="504" y="104"/>
      <point x="416" y="16"/>
      <point x="308" y="16" type="curve" smooth="yes"/>
      <point x="218" y="16"/>
      <point x="143" y="76"/>
      <point x="119" y="158" type="curve" smooth="yes"/>
      <point x="117" y="166"/>
      <point x="108" y="171"/>
      <point x="99" y="168" type="curve" smooth="yes"/>
      <point x="91" y="166"/>
      <point x="86" y="157"/>
      <point x="89" y="148" type="curve" smooth="yes"/>
      <point x="117" y="54"/>
      <point x="204" y="-16"/>
      <point x="308" y="-16" type="curve" smooth="yes"/>
      <point x="434" y="-16"/>
      <point x="536" y="86"/>
      <point x="536" y="212" type="curve" smooth="yes"/>
    </contour>
  </outline>
</glyph>
<glyph name="pi" format="1">
  <advance width="676"/>
  <unicode hex="03C0"/>
  <outline>
    <contour>
      <point x="580" y="820" type="line" smooth="yes"/>
      <point x="589" y="820"/>
      <point x="596" y="827"/>
      <point x="596" y="836" type="curve" smooth="yes"/>
      <point x="596" y="845"/>
      <point x="589" y="852"/>
      <point x="580" y="852" type="curve" smooth="yes"/>
      <point x="96" y="852" type="line" smooth="yes"/>
      <point x="87" y="852"/>
      <point x="80" y="845"/>
      <point x="80" y="836" type="curve" smooth="yes"/>
      <point x="80" y="827"/>
      <point x="87" y="820"/>
      <point x="96" y="820" type="curve" smooth="yes"/>
    </contour>
    <contour>
      <point x="192" y="16" type="line" smooth="yes"/>
      <point x="192" y="7"/>
      <point x="199" y="0"/>
      <point x="208" y="0" type="curve" smooth="yes"/>
      <point x="217" y="0"/>
      <point x="224" y="7"/>
      <point x="224" y="16" type="curve" smooth="yes"/>
      <point x="224" y="830" type="line" smooth="yes"/>
      <point x="224" y="839"/>
      <point x="217" y="846"/>
      <point x="208" y="846" type="curve" smooth="yes"/>
      <point x="199" y="846"/>
      <point x="192" y="839"/>
      <point x="192" y="830" type="curve" smooth="yes"/>
    </contour>
    <contour>
      <point x="472" y="830" type="line" smooth="yes"/>
      <point x="472" y="839"/>
      <point x="465" y="846"/>
      <point x="456" y="846" type="curve" smooth="yes"/>
      <point x="447" y="846"/>
      <point x="440" y="839"/>
      <point x="440" y="830" type="curve" smooth="yes"/>
      <point x="440" y="124" type="line" smooth="yes"/>
      <point x="440" y="47"/>
      <point x="503" y="-16"/>
      <point x="580" y="-16" type="curve" smooth="yes"/>
      <point x="589" y="-16"/>
      <point x="596" y="-9"/>
      <point x="596" y="0" type="curve" smooth="yes"/>
      <point x="596" y="9"/>
      <point x="589" y="16"/>
      <point x="580" y="16" type="curve" smooth="yes"/>
      <point x="521" y="16"/>
      <point x="472" y="65"/>
      <point x="472" y="124" type="curve" smooth="yes"/>
    </contour>
  </outline>
</glyph>
<glyph name="guilsinglright" format="1">
  <advance width="284"/>
  <unicode hex="203A"/>
  <outline>
    <contour>
      <point x="87" y="571" type="line" smooth="yes"/>
      <point x="81" y="577"/>
      <point x="71" y="577"/>
      <point x="65" y="571" type="curve" smooth="yes"/>
      <point x="59" y="565"/>
      <point x="59" y="555"/>
      <point x="65" y="549" type="curve" smooth="yes"/>
      <point x="199" y="417" type="line"/>
      <point x="199" y="439" type="line"/>
      <point x="65" y="307" type="line" smooth="yes"/>
      <point x="59" y="301"/>
      <point x="59" y="291"/>
      <point x="65" y="285" type="curve" smooth="yes"/>
      <point x="71" y="279"/>
      <point x="81" y="279"/>
      <point x="87" y="285" type="curve" smooth="yes"/>
      <point x="221" y="417" type="line" smooth="yes"/>
      <point x="228" y="423"/>
      <point x="228" y="433"/>
      <point x="221" y="439" type="curve" smooth="yes"/>
    </contour>
  </outline>
</glyph>
<glyph name="zero.sup" format="1">
  <advance width="404"/>
  <unicode hex="2070"/>
  <outline>
    <contour>
      <point x="202" y="1232" type="curve" smooth="yes"/>
      <point x="135" y="1232"/>
      <point x="80" y="1178"/>
      <point x="80" y="1110" type="curve" smooth="yes"/>
      <point x="80" y="706" type="line" smooth="yes"/>
      <point x="80" y="639"/>
      <point x="135" y="584"/>
      <point x="202" y="584" type="curve" smooth="yes"/>
      <point x="269" y="584"/>
      <point x="324" y="639"/>
      <point x="324" y="706" type="curve" smooth="yes"/>
      <point x="324" y="1110" type="line" smooth="yes"/>
      <point x="324" y="1178"/>
      <point x="269" y="1232"/>
    </contour>
    <contour>
      <point x="112" y="1110" type="line" smooth="yes"/>
      <point x="112" y="1160"/>
      <point x="153" y="1200"/>
      <point x="202" y="1200" type="curve" smooth="yes"/>
      <point x="251" y="1200"/>
      <point x="291" y="1161"/>
      <point x="292" y="1110" type="curve"/>
      <point x="112" y="771" type="line"/>
    </contour>
    <contour>
      <point x="202" y="616" type="curve" smooth="yes"/>
      <point x="154" y="616"/>
      <point x="114" y="655"/>
      <point x="112" y="703" type="curve"/>
      <point x="292" y="1042" type="line"/>
      <point x="292" y="706" type="line" smooth="yes"/>
      <point x="292" y="657"/>
      <point x="251" y="616"/>
    </contour>
  </outline>
</glyph>
<glyph name="nine.sup" format="1">
  <advance width="404"/>
  <unicode hex="2079"/>
  <outline>
    <contour>
      <point x="112" y="706" type="curve" smooth="yes"/>
      <point x="112" y="715"/>
      <point x="105" y="722"/>
      <point x="96" y="722" type="curve" smooth="yes"/>
      <point x="87" y="722"/>
      <point x="80" y="715"/>
      <point x="80" y="706" type="curve" smooth="yes"/>
      <point x="80" y="639"/>
      <point x="135" y="584"/>
      <point x="202" y="584" type="curve" smooth="yes"/>
      <point x="269" y="584"/>
      <point x="324" y="639"/>
      <point x="324" y="706" type="curve" smooth="yes"/>
      <point x="324" y="1110" type="line" smooth="yes"/>
      <point x="324" y="1178"/>
      <point x="269" y="1232"/>
      <point x="202" y="1232" type="curve" smooth="yes"/>
      <point x="135" y="1232"/>
      <point x="80" y="1178"/>
      <point x="80" y="1110" type="curve" smooth="yes"/>
      <point x="80" y="920" type="line" smooth="yes"/>
      <point x="80" y="853"/>
      <point x="135" y="798"/>
      <point x="202" y="798" type="curve" smooth="yes"/>
      <point x="269" y="798"/>
      <point x="324" y="853"/>
      <point x="324" y="920" type="curve" smooth="yes"/>
      <point x="324" y="929"/>
      <point x="317" y="936"/>
      <point x="308" y="936" type="curve" smooth="yes"/>
      <point x="299" y="936"/>
      <point x="292" y="929"/>
      <point x="292" y="920" type="curve" smooth="yes"/>
      <point x="292" y="871"/>
      <point x="251" y="830"/>
      <point x="202" y="830" type="curve" smooth="yes"/>
      <point x="153" y="830"/>
      <point x="112" y="871"/>
      <point x="112" y="920" type="curve" smooth="yes"/>
      <point x="112" y="1110" type="line" smooth="yes"/>
      <point x="112" y="1160"/>
      <point x="153" y="1200"/>
      <point x="202" y="1200" type="curve" smooth="yes"/>
      <point x="251" y="1200"/>
      <point x="292" y="1160"/>
      <point x="292" y="1110" type="curve" smooth="yes"/>
      <point x="292" y="706" type="line" smooth="yes"/>
      <point x="292" y="657"/>
      <point x="251" y="616"/>
      <point x="202" y="616" type="curve" smooth="yes"/>
      <point x="153" y="616"/>
      <point x="112" y="657"/>
    </contour>
  </outline>
</glyph>
<glyph name="Euro" format="1">
  <advance width="666.0"/>
  <unicode hex="20AC"/>
  <outline>
    <contour>
      <point x="554" y="988" type="curve" smooth="yes"/>
      <point x="554" y="979"/>
      <point x="561" y="972"/>
      <point x="570" y="972" type="curve" smooth="yes"/>
      <point x="579" y="972"/>
      <point x="586" y="979"/>
      <point x="586" y="988" type="curve" smooth="yes"/>
      <point x="586" y="1114"/>
      <point x="484" y="1216"/>
      <point x="358" y="1216" type="curve" smooth="yes"/>
      <point x="232" y="1216"/>
      <point x="130" y="1114"/>
      <point x="130" y="988" type="curve" smooth="yes"/>
      <point x="130" y="212" type="line" smooth="yes"/>
      <point x="130" y="86"/>
      <point x="232" y="-16"/>
      <point x="358" y="-16" type="curve" smooth="yes"/>
      <point x="484" y="-16"/>
      <point x="586" y="86"/>
      <point x="586" y="212" type="curve" smooth="yes"/>
      <point x="586" y="221"/>
      <point x="579" y="228"/>
      <point x="570" y="228" type="curve" smooth="yes"/>
      <point x="561" y="228"/>
      <point x="554" y="221"/>
      <point x="554" y="212" type="curve" smooth="yes"/>
      <point x="554" y="104"/>
      <point x="466" y="16"/>
      <point x="358" y="16" type="curve" smooth="yes"/>
      <point x="250" y="16"/>
      <point x="162" y="104"/>
      <point x="162" y="212" type="curve" smooth="yes"/>
      <point x="162" y="988" type="line" smooth="yes"/>
      <point x="162" y="1096"/>
      <point x="250" y="1184"/>
      <point x="358" y="1184" type="curve" smooth="yes"/>
      <point x="466" y="1184"/>
      <point x="554" y="1096"/>
    </contour>
    <contour>
      <point x="311" y="654" type="line" smooth="yes"/>
      <point x="320" y="654"/>
      <point x="327" y="661"/>
      <point x="327" y="670" type="curve" smooth="yes"/>
      <point x="327" y="679"/>
      <point x="320" y="686"/>
      <point x="311" y="686" type="curve" smooth="yes"/>
      <point x="76" y="686" type="line" smooth="yes"/>
      <point x="67" y="686"/>
      <point x="60" y="679"/>
      <point x="60" y="670" type="curve" smooth="yes"/>
      <point x="60" y="661"/>
      <point x="67" y="654"/>
      <point x="76" y="654" type="curve" smooth="yes"/>
    </contour>
    <contour>
      <point x="311" y="574" type="line" smooth="yes"/>
      <point x="320" y="574"/>
      <point x="327" y="581"/>
      <point x="327" y="590" type="curve" smooth="yes"/>
      <point x="327" y="599"/>
      <point x="320" y="606"/>
      <point x="311" y="606" type="curve" smooth="yes"/>
      <point x="76" y="606" type="line" smooth="yes"/>
      <point x="67" y="606"/>
      <point x="60" y="599"/>
      <point x="60" y="590" type="curve" smooth="yes"/>
      <point x="60" y="581"/>
      <point x="67" y="574"/>
      <point x="76" y="574" type="curve" smooth="yes"/>
    </contour>
  </outline>
</glyph>
<glyph name="product" format="1">
  <advance width="826"/>
  <unicode hex="220F"/>
  <outline>
    <contour>
      <point x="730" y="-16" type="curve" smooth="yes"/>
      <point x="739" y="-16"/>
      <point x="746" y="-9"/>
      <point x="746" y="0" type="curve" smooth="yes"/>
      <point x="746" y="9"/>
      <point x="739" y="16"/>
      <point x="730" y="16" type="curve" smooth="yes"/>
      <point x="671" y="16"/>
      <point x="622" y="65"/>
      <point x="622" y="124" type="curve" smooth="yes"/>
      <point x="622" y="1178" type="line" smooth="yes"/>
      <point x="622" y="1187"/>
      <point x="615" y="1194"/>
      <point x="606" y="1194" type="curve" smooth="yes"/>
      <point x="597" y="1194"/>
      <point x="590" y="1187"/>
      <point x="590" y="1178" type="curve" smooth="yes"/>
      <point x="590" y="124" type="line" smooth="yes"/>
      <point x="590" y="47"/>
      <point x="653" y="-16"/>
    </contour>
    <contour>
      <point x="192" y="16" type="line" smooth="yes"/>
      <point x="192" y="7"/>
      <point x="199" y="0"/>
      <point x="208" y="0" type="curve" smooth="yes"/>
      <point x="217" y="0"/>
      <point x="224" y="7"/>
      <point x="224" y="16" type="curve" smooth="yes"/>
      <point x="224" y="1178" type="line" smooth="yes"/>
      <point x="224" y="1187"/>
      <point x="217" y="1194"/>
      <point x="208" y="1194" type="curve" smooth="yes"/>
      <point x="199" y="1194"/>
      <point x="192" y="1187"/>
      <point x="192" y="1178" type="curve" smooth="yes"/>
    </contour>
    <contour>
      <point x="730" y="1168" type="line" smooth="yes"/>
      <point x="739" y="1168"/>
      <point x="746" y="1175"/>
      <point x="746" y="1184" type="curve" smooth="yes"/>
      <point x="746" y="1193"/>
      <point x="739" y="1200"/>
      <point x="730" y="1200" type="curve" smooth="yes"/>
      <point x="96" y="1200" type="line" smooth="yes"/>
      <point x="87" y="1200"/>
      <point x="80" y="1193"/>
      <point x="80" y="1184" type="curve" smooth="yes"/>
      <point x="80" y="1175"/>
      <point x="87" y="1168"/>
      <point x="96" y="1168" type="curve" smooth="yes"/>
    </contour>
  </outline>
</glyph>
<glyph name="zero.oldstyle" format="1">
  <advance width="616.0"/>
  <unicode hex="F730"/>
  <outline>
    <contour>
      <point x="536" y="648" type="line" smooth="yes"/>
      <point x="536" y="774"/>
      <point x="433" y="868"/>
      <point x="308" y="868" type="curve" smooth="yes"/>
      <point x="182" y="868"/>
      <point x="80" y="766"/>
      <point x="80" y="640" type="curve" smooth="yes"/>
      <point x="80" y="196" type="line" smooth="yes"/>
      <point x="80" y="71"/>
      <point x="182" y="-32"/>
      <point x="308" y="-32" type="curve" smooth="yes"/>
      <point x="433" y="-32"/>
      <point x="536" y="71"/>
      <point x="536" y="196" type="curve" smooth="yes"/>
    </contour>
    <contour>
      <point x="504" y="648" type="curve" smooth="yes"/>
      <point x="504" y="196" type="line" smooth="yes"/>
      <point x="504" y="89"/>
      <point x="415" y="0"/>
      <point x="308" y="0" type="curve" smooth="yes"/>
      <point x="200" y="0"/>
      <point x="112" y="89"/>
      <point x="112" y="196" type="curve" smooth="yes"/>
      <point x="112" y="640" type="line" smooth="yes"/>
      <point x="112" y="748"/>
      <point x="200" y="836"/>
      <point x="308" y="836" type="curve" smooth="yes"/>
      <point x="415" y="836"/>
      <point x="504" y="756"/>
    </contour>
    <contour>
      <point x="84" y="208" type="line" smooth="yes"/>
      <point x="78" y="202"/>
      <point x="79" y="191"/>
      <point x="85" y="185" type="curve" smooth="yes"/>
      <point x="91" y="179"/>
      <point x="102" y="180"/>
      <point x="108" y="186" type="curve" smooth="yes"/>
      <point x="532" y="628" type="line" smooth="yes"/>
      <point x="538" y="634"/>
      <point x="537" y="645"/>
      <point x="531" y="651" type="curve" smooth="yes"/>
      <point x="525" y="657"/>
      <point x="514" y="656"/>
      <point x="508" y="650" type="curve" smooth="yes"/>
    </contour>
  </outline>
</glyph>
<glyph name="three.oldstyle" format="1">
  <advance width="616.0"/>
  <unicode hex="F733"/>
  <outline>
    <contour>
      <point x="335" y="352" type="curve" smooth="yes"/>
      <point x="326" y="351"/>
      <point x="320" y="342"/>
      <point x="321" y="334" type="curve" smooth="yes"/>
      <point x="322" y="325"/>
      <point x="331" y="319"/>
      <point x="339" y="320" type="curve" smooth="yes"/>
      <point x="450" y="335"/>
      <point x="537" y="431"/>
      <point x="537" y="546" type="curve" smooth="yes"/>
      <point x="537" y="640" type="line" smooth="yes"/>
      <point x="537" y="766"/>
      <point x="434" y="868"/>
      <point x="309" y="868" type="curve" smooth="yes"/>
      <point x="307" y="868" type="line" smooth="yes"/>
      <point x="181" y="868"/>
      <point x="79" y="766"/>
      <point x="79" y="640" type="curve" smooth="yes"/>
      <point x="79" y="631"/>
      <point x="86" y="624"/>
      <point x="95" y="624" type="curve" smooth="yes"/>
      <point x="104" y="624"/>
      <point x="111" y="631"/>
      <point x="111" y="640" type="curve" smooth="yes"/>
      <point x="111" y="748"/>
      <point x="199" y="836"/>
      <point x="307" y="836" type="curve" smooth="yes"/>
      <point x="309" y="836" type="line" smooth="yes"/>
      <point x="416" y="836"/>
      <point x="505" y="748"/>
      <point x="505" y="640" type="curve" smooth="yes"/>
      <point x="505" y="546" type="line" smooth="yes"/>
      <point x="505" y="447"/>
      <point x="430" y="365"/>
    </contour>
    <contour>
      <point x="111" y="-168" type="curve" smooth="yes"/>
      <point x="111" y="-159"/>
      <point x="104" y="-152"/>
      <point x="95" y="-152" type="curve" smooth="yes"/>
      <point x="86" y="-152"/>
      <point x="79" y="-159"/>
      <point x="79" y="-168" type="curve" smooth="yes"/>
      <point x="79" y="-293"/>
      <point x="181" y="-396"/>
      <point x="307" y="-396" type="curve" smooth="yes"/>
      <point x="309" y="-396" type="line" smooth="yes"/>
      <point x="434" y="-396"/>
      <point x="537" y="-293"/>
      <point x="537" y="-168" type="curve" smooth="yes"/>
      <point x="537" y="122" type="line" smooth="yes"/>
      <point x="537" y="248"/>
      <point x="434" y="350"/>
      <point x="309" y="350" type="curve" smooth="yes"/>
      <point x="300" y="350"/>
      <point x="293" y="343"/>
      <point x="293" y="334" type="curve" smooth="yes"/>
      <point x="293" y="325"/>
      <point x="300" y="318"/>
      <point x="309" y="318" type="curve" smooth="yes"/>
      <point x="416" y="318"/>
      <point x="505" y="230"/>
      <point x="505" y="122" type="curve" smooth="yes"/>
      <point x="505" y="-168" type="line" smooth="yes"/>
      <point x="505" y="-275"/>
      <point x="416" y="-364"/>
      <point x="309" y="-364" type="curve" smooth="yes"/>
      <point x="307" y="-364" type="line" smooth="yes"/>
      <point x="199" y="-364"/>
      <point x="111" y="-275"/>
    </contour>
  </outline>
</glyph>
<glyph name="four.oldstyle" format="1">
  <advance width="616.0"/>
  <unicode hex="F734"/>
  <outline>
    <contour>
      <point x="515" y="0" type="line" smooth="yes"/>
      <point x="524" y="0"/>
      <point x="531" y="7"/>
      <point x="531" y="16" type="curve" smooth="yes"/>
      <point x="531" y="25"/>
      <point x="524" y="32"/>
      <point x="515" y="32" type="curve" smooth="yes"/>
      <point x="96" y="32" type="line"/>
      <point x="111" y="12" type="line"/>
      <point x="323" y="832" type="line"/>
      <point x="308" y="820" type="line"/>
      <point x="520" y="820" type="line"/>
      <point x="504" y="836" type="line"/>
      <point x="504" y="-252" type="line" smooth="yes"/>
      <point x="504" y="-261"/>
      <point x="511" y="-268"/>
      <point x="520" y="-268" type="curve" smooth="yes"/>
      <point x="529" y="-268"/>
      <point x="536" y="-261"/>
      <point x="536" y="-252" type="curve" smooth="yes"/>
      <point x="536" y="836" type="line" smooth="yes"/>
      <point x="536" y="845"/>
      <point x="529" y="852"/>
      <point x="520" y="852" type="curve" smooth="yes"/>
      <point x="308" y="852" type="line" smooth="yes"/>
      <point x="301" y="852"/>
      <point x="294" y="847"/>
      <point x="293" y="840" type="curve" smooth="yes"/>
      <point x="81" y="20" type="line" smooth="yes"/>
      <point x="78" y="9"/>
      <point x="85" y="0"/>
      <point x="96" y="0" type="curve" smooth="yes"/>
    </contour>
  </outline>
</glyph>
<glyph name="five.oldstyle" format="1">
  <advance width="616.0"/>
  <unicode hex="F735"/>
  <outline>
    <contour>
      <point x="505" y="-22" type="curve" smooth="yes"/>
      <point x="505" y="-129"/>
      <point x="417" y="-218"/>
      <point x="309" y="-218" type="curve" smooth="yes"/>
      <point x="202" y="-218"/>
      <point x="113" y="-129"/>
      <point x="113" y="-22" type="curve" smooth="yes"/>
      <point x="113" y="208" type="line" smooth="yes"/>
      <point x="113" y="316"/>
      <point x="202" y="404"/>
      <point x="309" y="404" type="curve" smooth="yes"/>
      <point x="520" y="404" type="line" smooth="yes"/>
      <point x="529" y="404"/>
      <point x="536" y="411"/>
      <point x="536" y="420" type="curve" smooth="yes"/>
      <point x="537" y="836" type="line" smooth="yes"/>
      <point x="537" y="845"/>
      <point x="530" y="852"/>
      <point x="521" y="852" type="curve" smooth="yes"/>
      <point x="96" y="852" type="line" smooth="yes"/>
      <point x="87" y="852"/>
      <point x="80" y="845"/>
      <point x="80" y="836" type="curve" smooth="yes"/>
      <point x="80" y="827"/>
      <point x="87" y="820"/>
      <point x="96" y="820" type="curve" smooth="yes"/>
      <point x="521" y="820" type="line"/>
      <point x="505" y="836" type="line"/>
      <point x="504" y="420" type="line"/>
      <point x="520" y="436" type="line"/>
      <point x="309" y="436" type="line" smooth="yes"/>
      <point x="184" y="436"/>
      <point x="81" y="334"/>
      <point x="81" y="208" type="curve" smooth="yes"/>
      <point x="81" y="-22" type="line" smooth="yes"/>
      <point x="81" y="-147"/>
      <point x="184" y="-250"/>
      <point x="309" y="-250" type="curve" smooth="yes"/>
      <point x="435" y="-250"/>
      <point x="537" y="-147"/>
      <point x="537" y="-22" type="curve" smooth="yes"/>
      <point x="537" y="-13"/>
      <point x="530" y="-6"/>
      <point x="521" y="-6" type="curve" smooth="yes"/>
      <point x="512" y="-6"/>
      <point x="505" y="-13"/>
    </contour>
  </outline>
</glyph>
